<svg xmlns="http://www.w3.org/2000/svg" height="800" width="1200" viewBox="-46.5414 -25.05825 403.3588 150.3495"><path fill="none" d="M0 .001v100.232h310.276V.001"/><path fill="#231F20" d="M187.636 56.76h42.169v43.076h-42.169z"/><path d="M187.634 100.231h-.396V56.364h42.961v43.867zm41.77-.791V57.155h-41.376V99.44z" fill="#231F20"/><path fill="#FFF200" d="M188.883 56.756h40.919v40.807h-40.919z"/><path d="M188.881 97.893h-.328V56.424h41.573v41.469zm.328-.66l40.26-.004V57.084h-40.26zM133.913 56.76h42.169v43.076h-42.169z" fill="#231F20"/><path d="M133.912 100.231h-.394V56.364h42.958v43.867zm41.77-.791V57.153h-41.374V99.44z" fill="#231F20"/><path fill="#FFF200" d="M135.164 56.756h40.918v40.807h-40.918z"/><path d="M135.164 97.891h-.332V56.424h41.577v41.467zm40.586-.658V57.084h-40.26v40.148h40.26zM80.258 56.76h42.168v43.076H80.258z" fill="#231F20"/><path d="M80.258 100.231h-.395V56.364h42.959v43.867zm41.769-.791V57.153H80.653V99.44z" fill="#231F20"/><path fill="#FFF200" d="M81.622 56.756h40.918v40.807H81.622z"/><path d="M81.622 97.891h-.331V56.424h41.578v41.467zm40.588-.658V57.084H81.95v40.148h40.26zM53.997.402h42.169V43.48H53.997z" fill="#231F20"/><path d="M53.998 43.874H53.6V.007h42.96v43.867zm41.771-.792V.794H54.392v42.288z" fill="#231F20"/><path fill="#FFF200" d="M55.248.4h40.918v40.806H55.248z"/><path d="M55.247 41.536h-.33V.071h41.579v41.465zm40.587-.661V.728H55.577v40.147zM107.321.402h42.169V43.48h-42.169z" fill="#231F20"/><path d="M107.319 43.877h-.394V.005h42.961v43.872zm41.776-.792V.796h-41.378v42.289z" fill="#231F20"/><path fill="#FFF200" d="M108.479.4h41.033v40.806h-41.033z"/><path d="M108.477 41.533h-.33V.071h41.691v41.462zm40.705-.656V.727h-40.375v40.15zM160.899.402h42.168V43.48h-42.168z" fill="#231F20"/><path d="M160.897 43.874h-.394V.003h42.956v43.871zm41.773-.79V.798h-41.378v42.287h41.378z" fill="#231F20"/><path fill="#FFF200" d="M162.15.4h40.917v40.806H162.15z"/><path d="M162.15 41.535h-.332V.068h41.578v41.467zm40.588-.659V.726h-40.26v40.15zM214.356.402h42.169V43.48h-42.169z" fill="#231F20"/><path d="M214.356 43.877h-.396V.004h42.956v43.873zm41.769-.793V.796h-41.376v42.288z" fill="#231F20"/><path fill="#FFF200" d="M215.605.4h41.033v40.806h-41.033z"/><path d="M215.604 41.537h-.328V.071h41.69v41.466zm40.702-.661V.727h-40.375v40.149zm32.214 55.85c0 2.004 1.602 3.503 3.511 3.503a3.47 3.47 0 003.491-3.503c0-1.963-1.59-3.462-3.491-3.462-1.909 0-3.511 1.499-3.511 3.462m.634 0c0-1.665 1.248-2.951 2.877-2.951 1.609 0 2.859 1.286 2.859 2.951 0 1.704-1.25 2.99-2.859 2.99-1.629 0-2.877-1.286-2.877-2.99zm1.517 2.048h.634v-1.748h.672l1.106 1.748h.68l-1.165-1.794c.605-.068 1.072-.374 1.072-1.11 0-.781-.458-1.163-1.426-1.163h-1.573zm.634-3.555h.839c.428 0 .893.085.893.624 0 .642-.513.67-1.07.67h-.661v-1.294zM.396.402h42.169V43.48H.396z" fill="#231F20"/><path d="M.396 43.874H.002V.007h42.959v43.867zm41.77-.792V.794H.793v42.288z" fill="#231F20"/><path fill="#FFF200" d="M1.646.4h40.919v40.806H1.646z"/><path d="M1.646 41.536h-.33V.071h41.578v41.465zm40.588-.661V.728H1.977v40.147zM26.67 56.76h42.169v43.076H26.67z" fill="#231F20"/><path d="M26.671 100.231h-.399V56.364h42.963v43.867zm41.771-.791V57.153H27.066V99.44z" fill="#231F20"/><path fill="#FFF200" d="M27.92 56.756h40.919v40.807H27.92z"/><path d="M27.92 97.891h-.332V56.424h41.578v41.467zm40.588-.658V57.084h-40.26v40.148h40.26zM267.712.396h42.167v43.078h-42.167z" fill="#231F20"/><path d="M267.712 43.869h-.398V0h42.96v43.869zm41.771-.791V.791h-41.378v42.288h41.378z" fill="#231F20"/><path fill="#FFF200" d="M268.962.394h40.919V41.2h-40.919z"/><path d="M268.962 41.528h-.33V.065h41.575v41.463zm40.591-.658V.723H269.29V40.87zm-68.211 15.89h42.169v43.076h-42.169z" fill="#231F20"/><path d="M241.342 100.233h-.396V56.362h42.96v43.871zm41.771-.795V57.157h-41.378v42.281z" fill="#231F20"/><path fill="#FFF200" d="M242.593 56.756h40.92v40.807h-40.92z"/><path d="M242.591 97.889h-.328V56.426h41.578v41.463zm40.588-.658V57.082h-40.26v40.149zM84.856 77.249c0-9.443 7.655-17.096 17.098-17.096 9.443 0 17.098 7.653 17.098 17.096 0 9.443-7.655 17.1-17.098 17.1-9.443 0-17.098-7.657-17.098-17.1m17.057 9.215a9.254 9.254 0 10-9.252-9.254 9.251 9.251 0 009.252 9.254zM221.392 63.45v7.055c-4.157-1.879-6.506-2.352-9.486-2.821-3.764-.627-7.447.077-7.918 2.744 0 .391.314 1.097 1.177 1.489 4.39 1.803 19.675 2.744 17.011 14.035-2.275 9.954-15.838 7.603-25.869 4.154v-7.84c9.091 4.701 17.951 6.897 18.736.941.547-4.471-17.326-2.901-18.814-12.075-.941-6.035 5.329-9.329 11.129-9.721 5.33-.313 10.663 1.491 14.034 2.039m1.585-58.214h7.301v24.978h18.831c.076 3.152 0 4.383 0 6.917h-26.131V5.236m-107.025.023h26.106v6.921h-18.854v5.736h16.679v6.196h-16.679v13.052h-7.251V5.259m53.594 0h26.105v6.921h-18.854v5.736h16.68c.066 2.109 0 3.757 0 6.196h-16.68v13.052h-7.25V5.259m106.728 0h26.169v6.921h-18.853v5.736h16.678c.066 2.043 0 3.823 0 6.196h-16.678v6.131h18.853c.066 3.165 0 4.351 0 6.921h-26.169V5.259" fill="#231F20"/><path d="M249.907 61.621h26.171v6.923h-18.853v5.735h16.678v6.196h-16.678v6.132h18.853c.066 3.163 0 4.35 0 6.921h-26.171V61.621m-100.07 0c.065 2.704 0 6.132 0 9.363v7.713c.065 4.416 1.451 7.777 6.526 7.58 4.614-.066 5.077-3.363 5.141-7.58V61.688h7.12c.066 8.504 0 14.37 0 19.581-1.121 7.844-4.613 12.195-12.393 12.26-8.307.066-12.525-4.219-13.712-12.26 0-5.078.066-10.88 0-19.647 1.188.065 6-.001 7.318-.001m-115.496 0h7.449v12.725h13.646V61.621h7.12v31.513h-7.12V80.475H41.79v12.658h-7.449V61.621M5.138 5.259h6.988c.857 5.406.989 9.097 1.978 15.096 1.516-4.417 2.703-8.043 4.747-15.096h7.383c2.109 8.042 3.23 11.47 4.021 15.096l2.439-15.096h6.329l-4.68 31.247h-6.856a1460.022 1460.022 0 00-5.472-20.041l-5.801 20.041h-6.196L5.138 5.259m67.012-.05h7.219l11.968 32.007h-7.781l-2.42-7.127h-11.02l-2.512 7.127h-7.602L72.15 5.209m-.197 19.635h7.346L75.737 13.1h-.088z" fill="#231F20"/></svg>